<svg xmlns="http://www.w3.org/2000/svg" width="48" height="48" viewBox="0 0 48 48">
  <g stroke="#29342b" stroke-width="2" stroke-linejoin="round">
    <path d="M8 29 32 17 39 21 16 34Z" fill="#8b6845"/>
    <path d="M8 29v7l8 4v-6Z" fill="#b98957"/>
    <path d="M16 34 39 21v7L16 40Z" fill="#664a36"/>
    <path d="M5 20 29 8l8 4-24 13Z" fill="#a4794e"/>
    <path d="M5 20v7l8 4v-6Z" fill="#c1925d"/>
    <path d="M13 25 37 12v7L13 31Z" fill="#71503a"/>
  </g>
  <path d="M8 23c3 1 4 2 4 4M10 35c2 0 4 1 5 2" fill="none" stroke="#e2bd81" stroke-width="1.4" stroke-linecap="round"/>
</svg>
